<?xml version="1.0" encoding="utf-8" ?>
<svg baseProfile="tiny" height="600" version="1.2" width="805" xmlns="http://www.w3.org/2000/svg" xmlns:ev="http://www.w3.org/2001/xml-events" xmlns:xlink="http://www.w3.org/1999/xlink"><defs /><rect fill="white" height="500" rx="10" ry="10" stroke="lightgray" stroke-width="1" width="705" x="50" y="50" /><text font-family="SimHei" font-size="24" text-anchor="start" x="100" y="100">MightZero 的练习情况</text><rect fill="#bfbfbf" height="45.0" rx="5" ry="5" stroke="lightgray" stroke-width="1" width="0.0" x="185" y="120.0" /><text font-family="SimHei" font-size="12" text-anchor="start" x="195.0" y="145.0">0 题</text><text font-family="SimHei" font-size="12" text-anchor="end" x="175" y="145.0">暂无评定</text><rect fill="#fe4c61" height="45.0" rx="5" ry="5" stroke="lightgray" stroke-width="1" width="53.0526" x="185" y="170.0" /><text font-family="SimHei" font-size="12" text-anchor="start" x="248.05263157894737" y="195.0">21 题</text><text font-family="SimHei" font-size="12" text-anchor="end" x="175" y="195.0">入门</text><rect fill="#f39c11" height="45.0" rx="5" ry="5" stroke="lightgray" stroke-width="1" width="45.4737" x="185" y="220.0" /><text font-family="SimHei" font-size="12" text-anchor="start" x="240.4736842105263" y="245.0">18 题</text><text font-family="SimHei" font-size="12" text-anchor="end" x="175" y="245.0">普及-</text><rect fill="#ffc116" height="45.0" rx="5" ry="5" stroke="lightgray" stroke-width="1" width="70.7368" x="185" y="270.0" /><text font-family="SimHei" font-size="12" text-anchor="start" x="265.7368421052631" y="295.0">28 题</text><text font-family="SimHei" font-size="12" text-anchor="end" x="175" y="295.0">普及/提高-</text><rect fill="#52c41a" height="45.0" rx="5" ry="5" stroke="lightgray" stroke-width="1" width="171.7895" x="185" y="320.0" /><text font-family="SimHei" font-size="12" text-anchor="start" x="366.7894736842105" y="345.0">68 题</text><text font-family="SimHei" font-size="12" text-anchor="end" x="175" y="345.0">普及+/提高</text><rect fill="#3498db" height="45.0" rx="5" ry="5" stroke="lightgray" stroke-width="1" width="434.5263" x="185" y="370.0" /><text font-family="SimHei" font-size="12" text-anchor="start" x="629.5263157894736" y="395.0">172 题</text><text font-family="SimHei" font-size="12" text-anchor="end" x="175" y="395.0">提高+/省选-</text><rect fill="#9d3dcf" height="45.0" rx="5" ry="5" stroke="lightgray" stroke-width="1" width="480.0" x="185" y="420.0" /><text font-family="SimHei" font-size="12" text-anchor="start" x="675.0" y="445.0">190 题</text><text font-family="SimHei" font-size="12" text-anchor="end" x="175" y="445.0">省选/NOI-</text><rect fill="#0e1d69" height="45.0" rx="5" ry="5" stroke="lightgray" stroke-width="1" width="63.1579" x="185" y="470.0" /><text font-family="SimHei" font-size="12" text-anchor="start" x="258.1578947368421" y="495.0">25 题</text><text font-family="SimHei" font-size="12" text-anchor="end" x="175" y="495.0">NOI/NOI+/CTSC</text><text font-family="SimHei" font-size="14" opacity="0" text-anchor="start" x="-1000" y="-1000">生成时间: 2025-04-09 00:56:12</text></svg>