<?xml version="1.0" encoding="utf-8" ?>
<svg baseProfile="tiny" height="600" version="1.2" width="805" xmlns="http://www.w3.org/2000/svg" xmlns:ev="http://www.w3.org/2001/xml-events" xmlns:xlink="http://www.w3.org/1999/xlink"><defs /><rect fill="white" height="500" rx="10" ry="10" stroke="lightgray" stroke-width="1" width="705" x="50" y="50" /><text font-family="SimHei" font-size="24" text-anchor="start" x="100" y="100">MightZero 的练习情况</text><rect fill="#bfbfbf" height="45.0" rx="5" ry="5" stroke="lightgray" stroke-width="1" width="0.0" x="185" y="120.0" /><text font-family="SimHei" font-size="12" text-anchor="start" x="195.0" y="145.0">0 题</text><text font-family="SimHei" font-size="12" text-anchor="end" x="175" y="145.0">暂无评定</text><rect fill="#fe4c61" height="45.0" rx="5" ry="5" stroke="lightgray" stroke-width="1" width="57.2727" x="185" y="170.0" /><text font-family="SimHei" font-size="12" text-anchor="start" x="252.27272727272725" y="195.0">21 题</text><text font-family="SimHei" font-size="12" text-anchor="end" x="175" y="195.0">入门</text><rect fill="#f39c11" height="45.0" rx="5" ry="5" stroke="lightgray" stroke-width="1" width="49.0909" x="185" y="220.0" /><text font-family="SimHei" font-size="12" text-anchor="start" x="244.0909090909091" y="245.0">18 题</text><text font-family="SimHei" font-size="12" text-anchor="end" x="175" y="245.0">普及-</text><rect fill="#ffc116" height="45.0" rx="5" ry="5" stroke="lightgray" stroke-width="1" width="76.3636" x="185" y="270.0" /><text font-family="SimHei" font-size="12" text-anchor="start" x="271.3636363636364" y="295.0">28 题</text><text font-family="SimHei" font-size="12" text-anchor="end" x="175" y="295.0">普及/提高-</text><rect fill="#52c41a" height="45.0" rx="5" ry="5" stroke="lightgray" stroke-width="1" width="188.1818" x="185" y="320.0" /><text font-family="SimHei" font-size="12" text-anchor="start" x="383.18181818181813" y="345.0">69 题</text><text font-family="SimHei" font-size="12" text-anchor="end" x="175" y="345.0">普及+/提高</text><rect fill="#3498db" height="45.0" rx="5" ry="5" stroke="lightgray" stroke-width="1" width="460.9091" x="185" y="370.0" /><text font-family="SimHei" font-size="12" text-anchor="start" x="655.9090909090909" y="395.0">169 题</text><text font-family="SimHei" font-size="12" text-anchor="end" x="175" y="395.0">提高+/省选-</text><rect fill="#9d3dcf" height="45.0" rx="5" ry="5" stroke="lightgray" stroke-width="1" width="480.0" x="185" y="420.0" /><text font-family="SimHei" font-size="12" text-anchor="start" x="675.0" y="445.0">176 题</text><text font-family="SimHei" font-size="12" text-anchor="end" x="175" y="445.0">省选/NOI-</text><rect fill="#0e1d69" height="45.0" rx="5" ry="5" stroke="lightgray" stroke-width="1" width="51.8182" x="185" y="470.0" /><text font-family="SimHei" font-size="12" text-anchor="start" x="246.8181818181818" y="495.0">19 题</text><text font-family="SimHei" font-size="12" text-anchor="end" x="175" y="495.0">NOI/NOI+/CTSC</text><text font-family="SimHei" font-size="14" opacity="0" text-anchor="start" x="-1000" y="-1000">生成时间: 2025-02-07 12:44:12</text></svg>